<?xml version="1.0" standalone="no"?>
<!DOCTYPE svg PUBLIC "-//W3C//DTD SVG 20010904//EN"
 "http://www.w3.org/TR/2001/REC-SVG-20010904/DTD/svg10.dtd">
<svg version="1.0" xmlns="http://www.w3.org/2000/svg"
 width="286.000000pt" height="180.000000pt" viewBox="0 0 286.000000 180.000000"
 preserveAspectRatio="xMidYMid meet">
<metadata>
Created by potrace 1.16, written by Peter Selinger 2001-2019
</metadata>
<g transform="translate(0.000000,180.000000) scale(0.057661,-0.064516)"
fill="#000000" stroke="none">
<path d="M0 1395 l0 -1395 2480 0 2480 0 0 1395 0 1395 -2480 0 -2480 0 0
-1395z m1733 710 c32 -16 51 -45 30 -45 -221 -6 -219 -5 -321 -82 -97 -75
-152 -178 -152 -285 0 -29 3 -53 6 -53 3 0 17 14 31 30 14 17 35 30 48 30 12
0 29 10 38 23 14 21 15 21 35 4 11 -10 34 -45 51 -77 l32 -59 34 15 c38 16 50
12 130 -37 54 -34 93 -38 166 -19 59 16 99 6 158 -41 44 -35 55 -39 84 -34 27
5 46 1 83 -19 27 -14 63 -26 80 -26 17 0 37 -6 43 -14 19 -23 -16 -36 -95 -35
-38 0 -217 -2 -399 -4 -216 -3 -343 -1 -368 6 -62 17 -65 -3 -9 -55 41 -38 66
-52 146 -77 54 -17 118 -31 146 -31 65 0 148 32 210 81 51 40 80 49 80 25 0
-7 -28 -41 -62 -76 -45 -43 -88 -74 -148 -103 -81 -40 -90 -42 -195 -45 -192
-7 -287 28 -405 147 -41 42 -83 87 -93 100 l-19 23 -231 -3 c-200 -4 -232 -2
-232 11 0 10 15 17 48 22 27 3 59 14 72 22 13 9 44 16 67 17 42 1 42 1 13 10
-16 5 -71 8 -121 8 -50 -1 -100 3 -111 9 -14 8 -31 8 -59 1 -21 -6 -69 -8
-108 -5 -39 3 -92 6 -118 5 -57 0 -88 15 -88 41 0 17 7 20 42 20 50 0 96 13
159 46 29 15 64 24 91 24 31 0 48 6 60 19 9 11 34 23 55 26 21 4 53 13 71 21
28 13 36 13 61 1 26 -13 30 -12 59 14 17 15 48 31 69 35 42 8 119 -9 144 -32
15 -14 18 -9 34 53 23 85 37 114 87 180 69 90 192 169 313 200 70 18 210 11
258 -12z m617 -301 c5 -13 17 -24 26 -24 9 0 27 -9 40 -19 18 -14 34 -18 58
-14 20 3 45 -1 64 -11 17 -9 41 -16 52 -16 15 0 20 -5 18 -17 -3 -15 -19 -19
-98 -24 -52 -3 -153 -5 -225 -4 -105 1 -130 4 -130 15 0 8 9 16 20 19 11 2 30
14 42 27 12 14 28 21 37 18 10 -4 20 6 32 28 32 64 46 69 64 22z"/>
<path d="M1461 2094 c-134 -36 -277 -147 -332 -260 -18 -36 -29 -72 -26 -83 3
-11 -1 -25 -9 -32 -8 -6 -14 -25 -14 -41 0 -28 2 -30 33 -25 17 2 52 -2 77 -9
83 -25 85 -24 85 59 1 60 6 83 33 139 38 78 125 163 210 205 47 23 65 26 145
25 50 -1 86 2 81 7 -36 32 -188 41 -283 15z"/>
<path d="M1421 1702 c-8 -14 -21 -22 -39 -22 -18 0 -35 -10 -52 -31 -22 -26
-35 -32 -90 -38 -60 -7 -67 -11 -106 -54 -33 -37 -49 -47 -73 -47 -18 0 -69
-20 -117 -45 -63 -34 -96 -45 -129 -45 -24 0 -47 -4 -50 -10 -3 -5 -20 -13
-37 -18 -18 -4 118 -7 308 -7 242 1 345 5 361 13 16 9 29 9 49 2 16 -6 112
-10 228 -10 111 0 217 -1 236 -2 51 -3 373 12 379 17 2 3 -8 5 -23 5 -15 0
-50 12 -78 26 -36 18 -61 25 -83 21 -33 -5 -45 1 -125 59 -37 27 -28 27 -178
8 -51 -6 -99 11 -164 59 -25 18 -32 19 -61 9 -53 -19 -62 -15 -86 36 -12 26
-30 58 -40 71 l-19 24 -11 -21z"/>
<path d="M855 1682 c-16 -11 -36 -26 -44 -35 -12 -15 -15 -15 -34 -2 -29 20
-54 19 -67 -4 -8 -16 -17 -19 -44 -14 -38 6 -76 -10 -76 -32 0 -12 -14 -15
-62 -15 -49 0 -67 -5 -92 -24 -31 -23 -62 -32 -143 -43 -24 -3 -43 -8 -43 -13
0 -9 177 -23 240 -19 56 4 89 2 270 -9 l145 -10 51 29 c30 17 66 29 87 29 30
0 42 7 74 45 20 25 46 48 57 51 35 11 -10 26 -55 19 -35 -6 -44 -4 -67 18 -52
50 -142 62 -197 29z"/>
<path d="M1168 1363 c-27 -4 -27 -5 -13 -33 19 -37 134 -140 156 -140 10 0 22
-6 26 -14 4 -8 37 -24 73 -36 52 -18 88 -23 180 -23 114 -1 115 -1 203 41 60
28 106 59 147 98 65 62 75 88 13 34 -104 -92 -238 -109 -392 -52 -73 28 -147
77 -173 115 -6 10 -170 17 -220 10z"/>
<path d="M2302 1776 c-19 -41 -24 -46 -45 -41 -18 5 -28 1 -39 -17 l-15 -23
191 -2 191 -1 -35 18 c-19 11 -56 19 -81 20 -29 0 -51 6 -59 15 -7 8 -23 15
-37 15 -17 0 -28 8 -37 32 l-14 31 -20 -47z"/>
</g>
</svg>
